<svg xmlns="http://www.w3.org/2000/svg" xmlns:xlink="http://www.w3.org/1999/xlink" width="500" zoomAndPan="magnify" viewBox="0 0 375 374.999991" height="500" preserveAspectRatio="xMidYMid meet" version="1.0"><defs><clipPath id="id1"><path d="M 5.5625 0 L 362.5625 0 L 362.5625 375 L 5.5625 375 Z M 5.5625 0 " clip-rule="nonzero"/></clipPath></defs><path fill="#ffffff" d="M 184.070312 92.816406 C 144.636719 92.816406 112.664062 126.367188 112.664062 167.753906 C 112.664062 209.144531 144.636719 242.695312 184.070312 242.695312 C 223.507812 242.695312 255.472656 209.144531 255.472656 167.753906 C 255.472656 126.367188 223.507812 92.816406 184.070312 92.816406 " fill-opacity="1" fill-rule="nonzero"/><g clip-path="url(#id1)"><path fill="#ffffff" d="M 302.660156 316.835938 C 286.84375 278.265625 253.648438 254.140625 183.960938 254.140625 C 114.371094 254.140625 81.171875 278.203125 65.332031 316.6875 C 33.097656 284.039062 13.046875 238.226562 13.046875 187.5 C 13.046875 88.367188 89.617188 8.003906 184.070312 8.003906 C 278.527344 8.003906 355.097656 88.367188 355.097656 187.5 C 355.097656 238.308594 334.984375 284.183594 302.660156 316.835938 Z M 184.070312 0.148438 C 85.480469 0.148438 5.5625 84.03125 5.5625 187.5 C 5.5625 241.617188 27.425781 290.378906 62.390625 324.582031 C 94.269531 355.769531 137.046875 374.851562 184.070312 374.851562 C 231.015625 374.851562 273.726562 355.832031 305.59375 324.734375 C 340.648438 290.527344 362.582031 241.703125 362.582031 187.5 C 362.582031 84.03125 282.65625 0.148438 184.070312 0.148438 " fill-opacity="1" fill-rule="nonzero"/></g></svg>